<?xml version="1.0" encoding="UTF-8"?>
<svg width="18px" height="18px" viewBox="0 0 18 18" version="1.1" xmlns="http://www.w3.org/2000/svg" xmlns:xlink="http://www.w3.org/1999/xlink">
    <!-- Generator: Sketch 52.4 (67378) - http://www.bohemiancoding.com/sketch -->
    <title>Light Black</title>
    <desc>Created with Sketch.</desc>
    <g id="Page-1" stroke="none" stroke-width="1" fill="none" fill-rule="evenodd" stroke-linecap="round">
        <g id="iPhone-8" transform="translate(-291.000000, -224.000000)" stroke="#1D1D1B" stroke-width="1.5">
            <g id="Card" transform="translate(20.000000, 100.000000)">
                <g id="Light-Black" transform="translate(271.000000, 124.000000)">
                    <g id="Group">
                        <path d="M12.9707,8.874 C12.9707,11.27 11.0657,13.213 8.7167,13.213 C6.3667,13.213 4.4627,11.27 4.4627,8.874 C4.4627,6.478 6.3667,4.536 8.7167,4.536 C11.0657,4.536 12.9707,6.478 12.9707,8.874 Z" id="Stroke-1"></path>
                        <path d="M8.7168,0.75 L8.7168,2.63" id="Stroke-3"></path>
                        <path d="M8.7168,15.1191 L8.7168,16.9991" id="Stroke-5"></path>
                        <path d="M0.75,8.874 L2.593,8.874" id="Stroke-7"></path>
                        <path d="M14.8398,8.874 L16.6838,8.874" id="Stroke-9"></path>
                        <path d="M3.083,14.6191 L4.387,13.2901" id="Stroke-11"></path>
                        <path d="M13.0464,4.459 L14.3504,3.13" id="Stroke-13"></path>
                        <path d="M3.083,3.1299 L4.386,4.4589" id="Stroke-15"></path>
                        <path d="M13.0469,13.29 L14.3499,14.619" id="Stroke-17"></path>
                    </g>
                </g>
            </g>
        </g>
    </g>
</svg>