<?xml version="1.0" encoding="UTF-8"?>
<svg width="32px" height="30px" viewBox="0 0 32 30" version="1.1" xmlns="http://www.w3.org/2000/svg" xmlns:xlink="http://www.w3.org/1999/xlink">
    <!-- Generator: Sketch 52.4 (67378) - http://www.bohemiancoding.com/sketch -->
    <title>Group 7</title>
    <desc>Created with Sketch.</desc>
    <defs>
        <polygon id="path-1" points="0.155532102 0.0513397129 8.33835749 0.0513397129 8.33835749 9.28894737 0.155532102 9.28894737"></polygon>
        <polygon id="path-3" points="1.93236715e-05 0.0313526316 29.2220483 0.0313526316 29.2220483 26.2009569 1.93236715e-05 26.2009569"></polygon>
    </defs>
    <g id="Page-1" stroke="none" stroke-width="1" fill="none" fill-rule="evenodd">
        <g id="Group-8-Copy">
            <g id="Group-7">
                <g id="Group-3" transform="translate(23.608696, 0.125694)">
                    <mask id="mask-2" fill="white">
                        <use xlink:href="#path-1"></use>
                    </mask>
                    <g id="Clip-2"></g>
                    <path d="M1.9589372,2.82244498 C3.38463768,1.2542823 5.76028986,0.192258373 8.0621256,0.0513397129 C8.66038647,2.34091388 7.90815005,4.87308552 6.51120773,6.3967512 C5.08995719,7.94693021 2.6694686,9.23849282 0.239903382,9.28894737 C-0.0514975845,6.52881818 0.385990338,4.55277033 1.9589372,2.82244498 Z" id="Fill-1" fill="currentColor" mask="url(#mask-2)"></path>
                </g>
                <g id="Group-6" transform="translate(0.000000, 2.958230)">
                    <mask id="mask-4" fill="white">
                        <use xlink:href="#path-3"></use>
                    </mask>
                    <g id="Clip-5"></g>
                    <polygon id="Fill-4" fill="currentColor" mask="url(#mask-4)" points="14.6110338 0.0313526316 1.93236715e-05 13.3966732 0.772966184 13.786678 0.772966184 26.2009746 7.97663768 26.2009746 7.97663768 16.4412952 15.5822415 16.4412952 15.5822415 26.2009746 19.4950918 26.2009746 28.4491014 26.2009746 28.4491014 13.786678 29.2220483 13.3966732"></polygon>
                </g>
            </g>
        </g>
    </g>
</svg>