<?xml version="1.0" encoding="UTF-8"?>
<svg width="45px" height="29px" viewBox="0 0 45 29" version="1.1" xmlns="http://www.w3.org/2000/svg" xmlns:xlink="http://www.w3.org/1999/xlink">
    <!-- Generator: Sketch 52.4 (67378) - http://www.bohemiancoding.com/sketch -->
    <title>Group 13</title>
    <desc>Created with Sketch.</desc>
    <defs>
        <polygon id="path-1" points="0.0957085945 0.20059322 6.94716046 0.20059322 6.94716046 14.7778475 0.0957085945 14.7778475"></polygon>
        <polygon id="path-3" points="0 0.0841093038 26.9629714 0.0841093038 26.9629714 13.0344828 0 13.0344828"></polygon>
    </defs>
    <g id="Page-1" stroke="none" stroke-width="1" fill="none" fill-rule="evenodd">
        <g id="iPhone-8-Menue-Copy-2" transform="translate(-253.000000, -631.000000)">
            <g id="Group-2" transform="translate(-2.000000, 619.000000)">
                <g id="Group-13" transform="translate(255.000000, 12.000000)">
                    <path d="M30,17.7562676 C32.2871038,15.4427696 34.4639983,14.241598 37.3635505,14.0271816 C39.991778,13.8327774 42.9490588,14.6937417 45,16.2065318 C43.4006543,18.3762058 41.3313449,19.665783 37.8878315,19.9613478 C35.2742985,20.1861001 32.0748198,19.4280557 30,17.7562676" id="Fill-1" fill="#BCBCBC"></path>
                    <g id="Group-5" transform="translate(26.000000, 1.000000)">
                        <mask id="mask-2" fill="white">
                            <use xlink:href="#path-1"></use>
                        </mask>
                        <g id="Clip-4"></g>
                        <path d="M0.173275,6.88072881 C0.498025,4.34623729 2.062025,1.76344068 4.162775,0.200389831 C6.242275,2.25513559 7.248025,4.53462712 6.868275,7.86589831 C6.580025,10.3947966 5.080525,13.232339 2.798275,14.7778475 C0.700525,12.0369153 -0.185225,9.67759322 0.173275,6.88072881 Z" id="Fill-3" fill="#BCBCBC" mask="url(#mask-2)" transform="translate(3.521435, 7.489119) rotate(-3.000000) translate(-3.521435, -7.489119) "></path>
                    </g>
                    <path d="M36.0007798,9.98269889 C35.9744055,6.74350915 36.6139814,4.48794909 38.3876505,2.62903538 C39.9950675,0.944486344 42.5211095,-0.0585763585 44.8816059,0.00265092959 C45.267094,2.72407078 44.7565637,4.99027906 42.6779422,7.23173022 C41.1004316,8.93305021 38.4825507,10.1615891 36.0007798,9.98269889 L40.5,5" id="Fill-6" fill="#BCBCBC"></path>
                    <path d="M39.5,5 L30.5,17.5" id="Line" stroke="#BCBCBC" stroke-linecap="square"></path>
                    <g id="Group-9" transform="translate(0.000000, 1.000000)">
                        <path d="M20.4827586,6.51712579 C20.4827586,10.1166876 17.5653499,13.0344828 13.9659796,13.0344828 C10.3659157,13.0344828 7.44827586,10.1166876 7.44827586,6.51712579 C7.44827586,2.91779512 10.3659157,0 13.9659796,0 C17.5653499,0 20.4827586,2.91779512 20.4827586,6.51712579" id="Fill-8" fill="#BCBCBC"></path>
                        <g id="Group-12" transform="translate(0.000000, 14.896552)">
                            <mask id="mask-4" fill="white">
                                <use xlink:href="#path-3"></use>
                            </mask>
                            <g id="Clip-11"></g>
                            <path d="M-4.53781513e-05,10.2596135 L-4.53781513e-05,8.80663761 C-4.53781513e-05,3.98904359 4.12959328,0.0841093038 9.22419832,0.0841093038 L17.7389546,0.0841093038 C22.8333328,0.0841093038 26.9629714,3.98904359 26.9629714,8.80663761 L26.9629714,10.2596135 L26.9629714,13.0344828 L-4.53781513e-05,13.0344828 L-4.53781513e-05,10.2596135 Z" id="Fill-10" fill="#BCBCBC" mask="url(#mask-4)"></path>
                        </g>
                    </g>
                </g>
            </g>
        </g>
    </g>
</svg>